<?xml version="1.0" encoding="UTF-8" standalone="no"?>
<!-- Created with Inkscape (http://www.inkscape.org/) -->

<svg
   width="210mm"
   height="297mm"
   viewBox="0 0 210 297"
   version="1.1"
   id="svg1"
   xmlns="http://www.w3.org/2000/svg" >

  <defs
     id="defs1" />
  <g
     id="layer1">
    <path
       style="fill:#000000"
       d="m 64.225116,177.5942 -1.30872,-0.65694 -0.66146,-0.97701 -0.66146,-0.97702 -0.13229,-18.40823 -0.13229,-18.40823 -0.46674,-0.68683 c -0.2567,-0.37775 -0.79248,-0.83955 -1.19062,-1.02621 l -0.7239,-0.3394 -2.66342,-0.17796 -2.66343,-0.17797 -0.8217,-0.58509 -0.82169,-0.5851 -0.44515,-1.16562 -0.44515,-1.16561 0.3339,-1.01385 0.3339,-1.01386 19.11571,-19.31458 C 81.384256,100.29167 91.462569,90.145645 93.266871,88.367975 l 3.280549,-3.23213 1.57303,-0.73662 1.57303,-0.73663 h 2.25453 2.25452 l 1.77439,0.87353 1.7744,0.87354 2.32108,2.52068 2.32109,2.52069 1.90403,1.27781 c 1.04721,0.7028 2.59502,1.54152 3.43958,1.86383 l 1.53555,0.58601 2.38125,0.3171 c 1.30969,0.17441 2.65922,0.46701 2.99896,0.65024 l 0.61772,0.33312 0.39205,0.93833 0.39206,0.93833 -0.16922,1.00163 -0.16923,1.00163 -0.66241,1.015315 -0.66241,1.01531 -1.98871,1.4552 c -1.0938,0.80037 -2.84475,2.34959 -3.89101,3.44271 l -1.90229,1.9875 -0.96021,1.58438 c -0.52812,0.8714 -1.21762,2.35089 -1.53222,3.28774 l -0.57199,1.70337 -0.14146,1.73622 -0.14146,1.73621 0.44341,1.69441 c 0.24388,0.93193 0.69746,2.24162 1.00796,2.91042 l 0.56454,1.216 1.60046,1.60651 1.60046,1.6065 1.50184,0.70712 c 3.0769,1.44872 5.83935,1.78549 9.0815,1.10713 l 1.85208,-0.38752 2.11667,-1.05251 2.11666,-1.05251 1.98438,-1.73072 c 1.0914,-0.9519 2.63026,-2.16426 3.41968,-2.69414 l 1.43531,-0.96341 1.07823,-0.11535 1.07824,-0.11536 1.10645,0.61609 1.10645,0.61609 3.36572,3.175 c 1.85115,1.74625 3.82379,3.75124 4.38365,4.45553 l 1.01794,1.28053 -0.002,1.10072 -0.002,1.10072 -0.48935,0.74217 c -0.26915,0.4082 -0.76721,0.9368 -1.10682,1.17466 l -0.61746,0.43249 -2.6211,0.18177 -2.6211,0.18177 -0.70211,0.51446 c -0.38616,0.28296 -0.91029,0.92272 -1.16473,1.4217 l -0.46261,0.90723 -4.1e-4,17.87372 -4.1e-4,17.87372 -0.79876,1.25952 -0.79877,1.25952 -1.1879,0.52547 -1.1879,0.52546 -8.66281,-0.0795 -8.66282,-0.0795 -0.92514,-0.54347 c -1.07443,-0.63117 -1.99975,-1.90046 -2.37791,-3.26186 l -0.26587,-0.95717 -0.001,-9.26573 -0.001,-9.26574 -0.54723,-1.97473 c -0.66455,-2.3981 -1.95711,-4.90988 -3.56829,-6.93409 l -1.20279,-1.51112 -1.95685,-1.30882 c -2.31874,-1.55087 -4.21398,-2.30446 -6.81991,-2.71173 l -1.91222,-0.29886 -2.38125,0.14009 -2.38126,0.14009 -1.930015,0.67447 c -1.061508,0.37096 -2.60932,1.08928 -3.439583,1.59627 l -1.509569,0.92181 -1.339953,1.40529 c -2.496624,2.61839 -3.631284,4.60888 -4.468104,7.8383 l -0.40965,1.58089 v 9.37264 9.37264 l -0.38885,1.30941 -0.38886,1.3094 -1.00021,0.96391 -1.00021,0.96391 -1.05833,0.28677 -1.05833,0.28677 -8.084,0.001 -8.08398,0.001 z m 74.758994,-62.23795 c -2.34796,-0.31377 -3.93256,-0.97841 -5.77455,-2.42206 l -1.14435,-0.89687 -0.88821,-1.35507 -0.88821,-1.35506 -0.44729,-1.5684 -0.44729,-1.56839 0.13314,-1.60661 c 0.0732,-0.88363 0.34484,-2.24751 0.60358,-3.03084 l 0.47043,-1.42424 1.52742,-1.632815 1.52741,-1.6328 1.49326,-0.73118 1.49325,-0.73118 1.56758,-0.25245 1.56758,-0.25245 1.58522,0.25529 1.58522,0.25529 1.39134,0.69487 c 3.04709,1.52179 4.98192,4.308375 5.60091,8.066525 l 0.15253,0.92604 -0.252,1.54008 c -0.13859,0.84704 -0.53523,2.15876 -0.88142,2.91493 l -0.62942,1.37485 -1.29963,1.33094 -1.29962,1.33093 -1.19063,0.55649 c -2.03277,0.9501 -4.1197,1.40615 -5.55625,1.21418 z"
       id="path3" />
  </g>
</svg>
